<?xml version="1.0" encoding="UTF-8"?>
<svg width="24px" height="24px" viewBox="0 0 24 24" version="1.1" xmlns="http://www.w3.org/2000/svg" xmlns:xlink="http://www.w3.org/1999/xlink">
    <!-- Generator: Sketch 49.1 (51147) - http://www.bohemiancoding.com/sketch -->
    <title>Icons/Small/Due</title>
    <desc>Created with Sketch.</desc>
    <defs></defs>
    <g id="Icons/Small/Due" stroke="none" stroke-width="1" fill="none" fill-rule="evenodd">
        <path d="M24,12 C24,14.1612906 23.4596772,16.1612903 22.3790323,18 C21.2983873,19.8387097 19.8387097,21.2983873 18,22.3790323 C16.1612903,23.4596772 14.1612906,24 12,24 C9.83870943,24 7.83870968,23.4596772 6,22.3790323 C4.16129032,21.2983873 2.70161266,19.8387097 1.62096774,18 C0.540322827,16.1612903 0,14.1612906 0,12 C0,9.83870943 0.540322827,7.83870968 1.62096774,6 C2.70161266,4.16129032 4.16129032,2.70161266 6,1.62096774 C7.83870968,0.540322827 9.83870943,0 12,0 C14.1612906,0 16.1612903,0.540322827 18,1.62096774 C19.8387097,2.70161266 21.2983873,4.16129032 22.3790323,6 C23.4596772,7.83870968 24,9.83870943 24,12 Z" id="Icon:-Due" fill="#109E68"></path>
        <path d="M16.375,6 C16.5486112,6 16.6961804,6.05924466 16.8177083,6.17773438 C16.9392362,6.29622409 17,6.44010404 17,6.609375 L17,7.015625 C17,7.18489596 16.9392362,7.32877591 16.8177083,7.44726562 C16.6961804,7.56575534 16.5486112,7.625 16.375,7.625 C16.375,8.75911471 16.0798612,9.77897123 15.4895833,10.6845703 C14.8993054,11.5901694 14.1440971,12.1953125 13.2239583,12.5 C14.1440971,12.8046875 14.8993054,13.4098306 15.4895833,14.3154297 C16.0798612,15.2210288 16.375,16.2408853 16.375,17.375 C16.5486112,17.375 16.6961804,17.4342447 16.8177083,17.5527344 C16.9392362,17.6712241 17,17.815104 17,17.984375 L17,18.390625 C17,18.559896 16.9392362,18.7037759 16.8177083,18.8222656 C16.6961804,18.9407553 16.5486112,19 16.375,19 L7.625,19 C7.45138876,19 7.30381958,18.9407553 7.18229167,18.8222656 C7.06076376,18.7037759 7,18.559896 7,18.390625 L7,17.984375 C7,17.815104 7.06076376,17.6712241 7.18229167,17.5527344 C7.30381958,17.4342447 7.45138876,17.375 7.625,17.375 C7.625,16.2408853 7.92013876,15.2210288 8.51041667,14.3154297 C9.10069458,13.4098306 9.85590291,12.8046875 10.7760417,12.5 C9.85590291,12.1953125 9.10069458,11.5901694 8.51041667,10.6845703 C7.92013876,9.77897123 7.625,8.75911471 7.625,7.625 C7.45138876,7.625 7.30381958,7.56575534 7.18229167,7.44726562 C7.06076376,7.32877591 7,7.18489596 7,7.015625 L7,6.609375 C7,6.44010404 7.06076376,6.29622409 7.18229167,6.17773438 C7.30381958,6.05924466 7.45138876,6 7.625,6 L16.375,6 Z M14.7083333,17.375 C14.7083333,16.731771 14.5868054,16.1266275 14.34375,15.5595703 C14.1006946,14.9925131 13.7708333,14.5439453 13.3541667,14.2138672 C12.9375,13.8837891 12.4861112,13.71875 12,13.71875 C11.5138888,13.71875 11.0625,13.8837891 10.6458333,14.2138672 C10.2291667,14.5439453 9.89930542,14.9925131 9.65625,15.5595703 C9.41319458,16.1266275 9.29166667,16.731771 9.29166667,17.375 L14.7083333,17.375 Z" id="" fill="#FFFFFF"></path>
    </g>
</svg>