<?xml version="1.0" encoding="UTF-8"?>
<svg width="24px" height="24px" viewBox="0 0 24 24" version="1.1" xmlns="http://www.w3.org/2000/svg" xmlns:xlink="http://www.w3.org/1999/xlink">
    <!-- Generator: Sketch 49.1 (51147) - http://www.bohemiancoding.com/sketch -->
    <title>Icons/Small/Outstanding</title>
    <desc>Created with Sketch.</desc>
    <defs></defs>
    <g id="Icons/Small/Outstanding" stroke="none" stroke-width="1" fill="none" fill-rule="evenodd">
        <path d="M24,12 C24,14.1612906 23.4596772,16.1612903 22.3790323,18 C21.2983873,19.8387097 19.8387097,21.2983873 18,22.3790323 C16.1612903,23.4596772 14.1612906,24 12,24 C9.83870943,24 7.83870968,23.4596772 6,22.3790323 C4.16129032,21.2983873 2.70161266,19.8387097 1.62096774,18 C0.540322827,16.1612903 0,14.1612906 0,12 C0,9.83870943 0.540322827,7.83870968 1.62096774,6 C2.70161266,4.16129032 4.16129032,2.70161266 6,1.62096774 C7.83870968,0.540322827 9.83870943,0 12,0 C14.1612906,0 16.1612903,0.540322827 18,1.62096774 C19.8387097,2.70161266 21.2983873,4.16129032 22.3790323,6 C23.4596772,7.83870968 24,9.83870943 24,12 Z M17.9541828,11.9708786 L12.9854328,6.58806605 C12.766683,6.35108702 12.5010577,6.2325973 12.1885578,6.2325973 L7.40730783,6.2325973 C7.09480795,6.2325973 6.82918271,6.35108702 6.61043283,6.58806605 C6.39168295,6.82504509 6.28230783,7.11280577 6.28230783,7.4513473 L6.28230783,12.6310348 C6.28230783,12.9695763 6.39168295,13.257337 6.61043283,13.4943161 L11.5791828,18.8771286 C11.7979327,19.1141076 12.063558,19.2325973 12.3760578,19.2325973 C12.6885577,19.2325973 12.954183,19.1141076 13.1729328,18.8771286 L17.9541828,13.6974411 C18.1729327,13.460462 18.2823078,13.1727013 18.2823078,12.8341598 C18.2823078,12.4956183 18.1729327,12.2078576 17.9541828,11.9708786 Z M8.93031618,10.0363779 C8.65253851,10.0363779 8.41642719,9.93915553 8.22198285,9.74471119 C8.02753851,9.55026685 7.93031618,9.31415553 7.93031618,9.03637786 C7.93031618,8.75860019 8.02753851,8.52248886 8.22198285,8.32804453 C8.41642719,8.13360019 8.65253851,8.03637786 8.93031618,8.03637786 C9.20809385,8.03637786 9.44420518,8.13360019 9.63864951,8.32804453 C9.83309385,8.52248886 9.93031618,8.75860019 9.93031618,9.03637786 C9.93031618,9.31415553 9.83309385,9.55026685 9.63864951,9.74471119 C9.44420518,9.93915553 9.20809385,10.0363779 8.93031618,10.0363779 Z" id="Icon:-Outstanding" fill="#109E68"></path>
    </g>
</svg>