<?xml version="1.0" encoding="UTF-8"?>
<svg width="24px" height="24px" viewBox="0 0 24 24" version="1.1" xmlns="http://www.w3.org/2000/svg" xmlns:xlink="http://www.w3.org/1999/xlink">
    <!-- Generator: Sketch 49.1 (51147) - http://www.bohemiancoding.com/sketch -->
    <title>Icons/Small/Paid</title>
    <desc>Created with Sketch.</desc>
    <defs></defs>
    <g id="Icons/Small/Paid" stroke="none" stroke-width="1" fill="none" fill-rule="evenodd">
        <path d="M24,12 C24,14.1612906 23.4596772,16.1612903 22.3790323,18 C21.2983873,19.8387097 19.8387097,21.2983873 18,22.3790323 C16.1612903,23.4596772 14.1612906,24 12,24 C9.83870943,24 7.83870968,23.4596772 6,22.3790323 C4.16129032,21.2983873 2.70161266,19.8387097 1.62096774,18 C0.540322827,16.1612903 0,14.1612906 0,12 C0,9.83870943 0.540322827,7.83870968 1.62096774,6 C2.70161266,4.16129032 4.16129032,2.70161266 6,1.62096774 C7.83870968,0.540322827 9.83870943,0 12,0 C14.1612906,0 16.1612903,0.540322827 18,1.62096774 C19.8387097,2.70161266 21.2983873,4.16129032 22.3790323,6 C23.4596772,7.83870968 24,9.83870943 24,12 Z M10.5967742,18.3387097 L19.5,9.43548387 C19.6612901,9.30645137 19.7419355,9.1290325 19.7419355,8.90322581 C19.7419355,8.67741911 19.6612901,8.50000025 19.5,8.37096774 L18.4354839,7.25806452 C18.2741938,7.09677444 18.0887094,7.01612903 17.8790323,7.01612903 C17.6693551,7.01612903 17.4838707,7.09677444 17.3225806,7.25806452 L10.0645161,14.516129 L6.67741935,11.1290323 C6.51612928,10.9677422 6.33064492,10.8870968 6.12096774,10.8870968 C5.91129057,10.8870968 5.72580621,10.9677422 5.56451613,11.1290323 L4.5,12.2419355 C4.33870992,12.370968 4.25806452,12.5483869 4.25806452,12.7741935 C4.25806452,13.0000002 4.33870992,13.1774191 4.5,13.3064516 L9.53225806,18.3387097 C9.66129057,18.4999998 9.83870943,18.5806452 10.0645161,18.5806452 C10.2903228,18.5806452 10.4677417,18.4999998 10.5967742,18.3387097 Z" id="Icon:-Paid" fill="#109E68"></path>
    </g>
</svg>