<?xml version="1.0" encoding="UTF-8"?>
<svg width="125px" height="31px" viewBox="0 0 125 31" version="1.1" xmlns="http://www.w3.org/2000/svg" xmlns:xlink="http://www.w3.org/1999/xlink">
    <!-- Generator: Sketch 49.1 (51147) - http://www.bohemiancoding.com/sketch -->
    <title>Taralite Logo</title>
    <desc>Created with Sketch.</desc>
    <defs></defs>
    <g id="Taralite-Logo" stroke="none" stroke-width="1" fill="none" fill-rule="evenodd">
        <path d="M11.8502462,30.0848823 C11.2014592,29.938382 10.5422078,29.7500245 9.90388512,29.4988811 C5.81234113,27.9501637 2.91372812,25.1457295 1.14526025,21.1588285 C0.852259661,20.4995772 0.862723968,20.4891129 1.511511,20.1437908 C2.79862074,19.4636108 4.08573049,18.7834309 5.37284024,18.1032509 C5.85419836,17.8521076 5.85419836,17.8521076 6.10534172,18.3334657 C8.0412385,22.0169017 9.98759958,25.7003377 11.9234964,29.3837738 C11.9862822,29.5093454 12.0595323,29.6244528 12.1118539,29.7500245 C12.2164969,30.0116322 12.1432468,30.1058109 11.8502462,30.0848823 Z M18.6939029,29.9907036 C18.5369383,30.0116322 18.4532239,29.8337389 18.3590451,29.66631 C18.0660445,29.1012375 17.7625796,28.5466292 17.469579,27.9815566 C15.5546108,24.3399778 13.6396427,20.698399 11.7246745,17.0568202 C11.4735312,16.5859264 11.2223878,16.1254969 10.9817087,15.6441388 C10.7933512,15.2778881 10.8038155,15.2464951 11.1700663,15.0476733 C12.3943902,14.3988863 13.6291784,13.7605636 14.8535023,13.1117765 C15.1046456,12.9757405 15.219753,13.0385264 15.3348604,13.2687411 C15.7429684,14.0744928 16.1929336,14.8697801 16.6742917,15.6441388 C17.3440073,16.7219624 18.0241873,17.7893217 18.9555106,18.6787878 C20.127513,19.7880043 21.5192658,20.4158627 23.1203047,20.6146846 C25.0562015,20.8553636 26.8560623,20.3635412 28.6140658,19.641504 C28.8652092,19.536861 29.1163526,19.4322179 29.3674959,19.3275748 C29.4826033,19.2857176 29.5977107,19.2229318 29.7023538,19.3380391 C29.7756039,19.4217536 29.744211,19.5263967 29.7128181,19.6310397 C29.5349249,20.1333265 29.3779602,20.6356132 29.1582098,21.1274356 C27.1804558,25.6270876 23.8214133,28.5570935 19.1020109,29.9174534 C19.0182964,29.938382 18.934582,29.9697749 18.8508675,29.9907036 C18.8508675,29.9802392 18.8090103,29.9802392 18.6939029,29.9907036 Z M15.8371471,0 C19.3008327,0.146500296 22.4296605,1.3603599 25.1189873,3.69390033 C27.3164918,5.59840419 28.8338163,7.94240893 29.7023538,10.704986 C29.8488541,11.1758798 29.9744257,11.6572379 30.0790688,12.1490603 C30.1732476,12.5885612 30.120926,12.68274 29.7232824,12.8920261 C28.8128877,13.3733842 27.9129573,13.8756709 26.9920983,14.3151718 C25.7049885,14.9221016 24.3864859,14.9744232 23.0784475,14.3361004 C22.4715177,14.0430998 22.0215525,13.572206 21.6553018,13.0280621 C21.0588363,12.1490603 20.5460852,11.217737 20.0542628,10.2759494 C18.3695094,7.07387146 16.6952203,3.87179355 15.0209312,0.659251334 C14.6651448,0 14.6651448,0 15.3871819,0 C15.5127536,0 15.627861,0 15.8371471,0 Z M0.00465080306,13.8547423 C0.266258475,11.081701 1.17665317,8.54933873 2.80908505,6.28904844 C4.27408802,4.26943721 6.11580603,2.68932687 8.3551677,1.56964603 C8.48073939,1.50686019 8.60631107,1.45453866 8.73188275,1.39175282 C8.94116889,1.28710975 9.08766919,1.3603599 9.19231225,1.55918173 C9.37020547,1.90450385 9.558563,2.24982598 9.74692052,2.60561242 C10.5526722,4.13340122 11.3584238,5.67165434 12.1641754,7.19944314 C12.2269613,7.32501482 12.2897471,7.4401222 12.3525329,7.56569388 C12.5722834,8.00519477 12.5618191,8.02612339 12.1118539,8.26680244 C12.1013896,8.27726675 12.080461,8.27726675 12.0699966,8.28773106 C8.59584676,10.1085205 5.13216118,11.9397742 1.65801129,13.7605636 C1.24990332,13.980314 0.852259661,14.2105288 0.433687386,14.4093506 C0.0883652582,14.5767795 0.01511511,14.524458 0.00465080306,14.1372786 C-0.00581350383,14.0640285 0.00465080306,13.9593854 0.00465080306,13.8547423 Z M38.6598005,15.6336745 C38.6598005,16.6801052 38.6493362,17.7265359 38.6598005,18.7729666 C38.6702648,19.3903607 38.7644435,19.9972905 39.0574441,20.562363 C39.4027663,21.2320787 39.9155173,21.7029725 40.6375545,21.9436516 C41.5479492,22.2471165 42.4792725,22.3203666 43.4210601,22.2680451 C43.4419887,22.2680451 43.452453,22.2680451 43.4733816,22.2575808 C44.2582046,22.1843306 44.2895976,22.2261878 44.2895976,22.9900822 C44.2895976,23.3144758 44.2791333,23.6388693 44.2895976,23.9632628 C44.3000619,24.2248705 44.1640259,24.3399778 43.9128825,24.3399778 C42.6153085,24.3190492 41.3072701,24.4341566 40.0096961,24.2248705 C38.0424064,23.9004769 36.5250819,22.2052592 36.4204388,20.2170409 C36.3890459,19.5159324 36.4099745,18.8148238 36.4099745,18.1137152 C36.4099745,14.252386 36.3995102,10.4015211 36.3995102,6.54019181 C36.3995102,5.75536879 36.3995102,5.75536879 37.1947975,5.75536879 C37.4982624,5.75536879 37.8121916,5.75536879 38.1156565,5.75536879 C38.5970146,5.7658331 38.6284075,5.79722602 38.6284075,6.29951275 C38.6284075,7.07387146 38.6284075,7.83776586 38.6284075,8.61212457 C38.6284075,8.72723195 38.6284075,8.85280363 38.6284075,8.96791101 C38.6493362,9.4178762 38.6911934,9.47019774 39.1411586,9.47019774 C40.3968754,9.47019774 41.6421279,9.47019774 42.8978448,9.47019774 C43.0548094,9.47019774 43.211774,9.45973343 43.3582743,9.47019774 C43.7035964,9.49112635 43.7454536,9.52251927 43.7559179,9.85737709 C43.7663822,10.2654851 43.7663822,10.6840573 43.7559179,11.0921653 C43.7454536,11.5421305 43.7140607,11.5839877 43.2431669,11.5839877 C42.0293073,11.594452 40.8049834,11.5839877 39.5911238,11.5839877 C39.5074093,11.5839877 39.4236949,11.5735234 39.3295161,11.5839877 C38.7644435,11.594452 38.6284075,11.7200237 38.6179432,12.2850963 C38.6493362,13.4047771 38.6493362,14.524458 38.6598005,15.6336745 Z M58.6047694,16.9312486 C58.6047694,19.1392173 58.6047694,21.3576504 58.6047694,23.5656191 C58.6047694,23.7016551 58.6047694,23.8376911 58.6047694,23.9737271 C58.6047694,24.2039418 58.489662,24.3295135 58.2594473,24.3295135 C57.7153033,24.3295135 57.160695,24.3295135 56.6165511,24.3295135 C56.4386579,24.3295135 56.3340148,24.2248705 56.3235505,24.0365129 C56.3130862,23.8795483 56.3130862,23.733048 56.3130862,23.5760834 C56.3130862,19.8193973 56.3130862,16.0627111 56.3130862,12.3060249 C56.3130862,12.2223104 56.3235505,12.138596 56.3130862,12.0444172 C56.2816933,11.6990951 56.1875145,11.5839877 55.8317281,11.5735234 C55.3817629,11.5525948 54.942262,11.5630591 54.4922968,11.5630591 C53.7074738,11.5735234 52.9226508,11.5421305 52.1273634,11.6363093 C50.0135734,11.8979169 48.1090696,13.5617417 47.6591044,15.6336745 C47.0626389,18.3543943 48.3392843,20.729792 50.7879322,21.7657583 C51.6041481,22.1110805 52.4936142,22.2889737 53.4040089,22.1529377 C53.7284024,22.1006162 53.7911882,22.163402 53.8016525,22.5087241 C53.8121168,22.9691536 53.8121168,23.4400474 53.8016525,23.9004769 C53.7911882,24.2353348 53.749331,24.2876563 53.4144732,24.3085849 C50.9030395,24.4760138 48.7473923,23.733048 47.0731032,21.7866869 C46.1941014,20.7611849 45.5767073,19.6101111 45.3778855,18.2706798 C45.053492,16.0836397 45.4511356,14.0744928 46.8324241,12.3060249 C48.224177,10.537557 50.0449664,9.65855526 52.284328,9.54344789 C54.1888319,9.44926912 56.0933357,9.49112635 57.9873753,9.47019774 C58.5838408,9.45973343 58.6047694,9.48066204 58.6047694,10.0666632 C58.5943051,12.3688107 58.5943051,14.6500296 58.6047694,16.9312486 Z M60.6453092,16.8998556 C60.6453092,14.6918869 60.6453092,12.4734538 60.6453092,10.2654851 C60.6453092,10.1294491 60.6453092,9.99341308 60.6453092,9.85737709 C60.6453092,9.63762665 60.739488,9.49112635 60.9801671,9.49112635 C61.5138467,9.49112635 62.0475264,9.49112635 62.5707417,9.49112635 C62.8009565,9.49112635 62.9160638,9.60623373 62.9160638,9.83644848 C62.9160638,10.1399134 62.9055995,10.4538426 62.9265281,10.7573075 C62.9474568,11.081701 63.0311712,11.1340225 63.3032432,10.9770579 C63.6590296,10.7677718 63.9938874,10.537557 64.3601382,10.3387352 C66.432071,9.20859007 68.514468,9.19812576 70.5968651,10.3073423 C71.1619377,10.6108072 71.6432958,11.0189152 72.0618681,11.5002733 C72.3234757,11.7932739 72.3130114,11.8246668 71.957225,12.0234886 C71.5386527,12.2641677 71.1096161,12.4734538 70.7015082,12.7245972 C70.4399005,12.8815618 70.251543,12.8815618 70.0213282,12.6722756 C69.5295058,12.2013818 68.9330403,11.9188456 68.2633247,11.7514166 C65.7832839,11.1654155 62.9579211,12.8083116 62.9160638,15.9266751 C62.8951352,17.66375 62.9055995,19.3903607 62.9055995,21.1274356 C62.9055995,22.0378303 62.9055995,22.948225 62.9055995,23.8586197 C62.9055995,24.3190492 62.8637423,24.3504421 62.4033128,24.3609064 C61.9742762,24.3713708 61.5452396,24.3713708 61.1162031,24.3609064 C60.6662379,24.3609064 60.6243806,24.3190492 60.6243806,23.8481554 C60.6243806,22.9063678 60.6243806,21.9645802 60.6243806,21.0227925 C60.6453092,19.641504 60.6453092,18.2706798 60.6453092,16.8998556 Z M85.9061461,16.9207842 C85.9061461,19.1182887 85.9061461,21.3157931 85.9061461,23.5028333 C85.9061461,23.6597979 85.9061461,23.8062982 85.9061461,23.9632628 C85.9061461,24.2144061 85.7910387,24.3504421 85.529431,24.3399778 C85.0271443,24.3399778 84.5353219,24.3399778 84.0330351,24.3399778 C83.8028204,24.3399778 83.6772487,24.2353348 83.6772487,24.00512 C83.6772487,23.8376911 83.6667844,23.6597979 83.6667844,23.492369 C83.6667844,19.8089329 83.6667844,16.1150326 83.6667844,12.4315966 C83.6667844,11.5839877 83.6563201,11.5839877 82.7982469,11.5839877 C81.9401738,11.5839877 81.0821006,11.5735234 80.2240274,11.5839877 C77.6916652,11.625845 75.5988038,13.3001341 75.0337312,15.5185671 C74.3012297,18.3753229 75.8080899,21.1588285 78.6857743,21.9436516 C79.3450257,22.1215448 80.0147413,22.2785094 80.7158499,22.163402 C81.0925649,22.1006162 81.1553508,22.1843306 81.1553508,22.5924386 C81.1658151,23.0005465 81.1658151,23.4191188 81.1553508,23.8272268 C81.1448864,24.277192 81.1134935,24.3190492 80.653064,24.3399778 C78.1311661,24.4969424 76.0278404,23.6493336 74.343087,21.7343654 C71.5700456,18.6055377 72.0095465,13.2268839 75.9231973,10.6631287 C76.969628,9.97248447 78.1520947,9.64809095 79.4182758,9.5643765 C81.3855655,9.43880482 83.3633195,9.51205496 85.3306092,9.49112635 C85.8747532,9.48066204 85.9166104,9.52251927 85.9166104,10.0771275 C85.9061461,12.3583464 85.9061461,14.6395653 85.9061461,16.9207842 Z M90.949942,15.0686019 C90.949942,17.8102503 90.949942,20.5518987 90.949942,23.3040114 C90.949942,23.4400474 90.949942,23.5760834 90.949942,23.7121194 C90.9394777,24.3295135 90.9290134,24.3399778 90.3116193,24.3504421 C89.9349042,24.3504421 89.5581892,24.3609064 89.1814741,24.3504421 C88.7838305,24.3399778 88.7419732,24.2876563 88.7105803,23.9109412 C88.700116,23.7958339 88.7105803,23.6702622 88.7105803,23.5551548 C88.7105803,17.8939648 88.7105803,12.2327748 88.7105803,6.57158473 C88.7105803,5.75536879 88.7105803,5.75536879 89.5267963,5.7658331 C89.8511898,5.7658331 90.1755833,5.75536879 90.4999768,5.7658331 C90.8662275,5.7762974 90.9185491,5.82861894 90.9394777,6.18440537 C90.949942,6.34136998 90.9394777,6.48787027 90.9394777,6.64483488 C90.949942,9.44926912 90.949942,12.2537034 90.949942,15.0686019 Z M94.5078063,16.9626415 C94.5078063,14.7128155 94.5078063,12.4734538 94.5078063,10.2236278 C94.5078063,10.0875918 94.5078063,9.95155585 94.5078063,9.81551986 C94.5182707,9.61669803 94.6124494,9.49112635 94.8217356,9.49112635 C95.3658795,9.49112635 95.9204878,9.49112635 96.4646317,9.49112635 C96.6739179,9.49112635 96.7785609,9.59576942 96.7890252,9.80505556 C96.7890252,9.94109155 96.7890252,10.0771275 96.7890252,10.2131635 C96.7890252,14.7232798 96.7890252,19.2333961 96.7890252,23.733048 C96.7890252,23.8376911 96.7890252,23.9423342 96.7890252,24.0365129 C96.7785609,24.2144061 96.6843822,24.3295135 96.506489,24.3399778 C95.9414164,24.3504421 95.3763438,24.3504421 94.8112712,24.3399778 C94.6019851,24.3399778 94.5078063,24.2039418 94.5078063,24.00512 C94.5078063,23.869084 94.5078063,23.733048 94.5078063,23.597012 C94.5078063,21.378579 94.5078063,19.1706102 94.5078063,16.9626415 Z M95.6798087,5.75536879 C96.3495244,5.7658331 96.8099539,6.23672691 96.7994896,6.89597824 C96.7890252,7.52383666 96.3181314,7.97380185 95.6798087,7.98426616 C95.0310217,7.98426616 94.5182707,7.49244373 94.5182707,6.86458532 C94.5182707,6.23672691 95.0310217,5.75536879 95.6798087,5.75536879 Z M100.545711,13.3001341 C100.545711,10.9875222 100.545711,8.66444611 100.545711,6.35183428 C100.545711,5.79722602 100.577104,5.7658331 101.110784,5.75536879 C101.518892,5.75536879 101.937464,5.74490448 102.345572,5.75536879 C102.711823,5.7658331 102.764144,5.80769033 102.774609,6.17394107 C102.785073,7.03201423 102.774609,7.8900874 102.774609,8.74816056 C102.774609,8.88419655 102.774609,9.02023254 102.785073,9.15626853 C102.806002,9.35509036 102.910645,9.47019774 103.119931,9.47019774 C103.255967,9.47019774 103.392003,9.48066204 103.528039,9.47019774 C104.79422,9.47019774 106.070865,9.47019774 107.337047,9.47019774 C107.881191,9.47019774 107.891655,9.48066204 107.902119,10.0038774 C107.902119,10.3596638 107.902119,10.7259146 107.902119,11.081701 C107.891655,11.5421305 107.860262,11.5839877 107.399832,11.5839877 C106.165044,11.594452 104.930256,11.5839877 103.695468,11.5839877 C103.611753,11.5839877 103.528039,11.5735234 103.43386,11.5839877 C102.931573,11.6049163 102.774609,11.7409523 102.774609,12.2327748 C102.774609,14.4616721 102.764144,16.6905695 102.785073,18.9194669 C102.795537,19.505468 102.910645,20.0810049 103.193181,20.6042203 C103.538503,21.2320787 104.030326,21.6820439 104.710506,21.9227229 C105.610436,22.2366521 106.552224,22.3203666 107.494011,22.2575808 C108.404406,22.1947949 108.404406,22.1738663 108.404406,23.1051896 C108.404406,23.3144758 108.404406,23.5132976 108.404406,23.7225837 C108.404406,24.3295135 108.393942,24.3399778 107.80794,24.3399778 C106.845224,24.3399778 105.882508,24.3190492 104.930256,24.3190492 C104.564005,24.3190492 104.208219,24.2562634 103.862897,24.1725489 C102.00025,23.7225837 100.629426,22.0587589 100.545711,20.1333265 C100.524783,19.7566114 100.535247,19.3798964 100.535247,19.0031813 C100.545711,17.1091418 100.545711,15.2046379 100.545711,13.3001341 Z M124.017152,20.4995772 C123.89158,20.8553636 123.724151,21.0751141 123.556722,21.2844002 C122.227755,22.9168321 120.563931,24.0260486 118.460605,24.2981206 C116.608423,24.5387997 114.839955,24.2353348 113.238916,23.1889041 C111.648341,22.1529377 110.444946,20.8030421 109.984516,18.9194669 C109.283408,16.1254969 109.942659,13.6873134 112.025056,11.6886308 C113.552845,10.2236278 115.394563,9.45973343 117.518817,9.50159066 C121.212718,9.58530511 124.320617,12.4525252 124.854296,15.6546031 C124.948475,16.2406043 125.053118,16.8370698 124.969404,17.4439996 C124.906618,17.9148934 124.854296,17.9672149 124.393867,17.9672149 C121.380146,17.9672149 118.355962,17.9776792 115.342241,17.9672149 C114.82949,17.9672149 114.798097,17.9253577 114.787633,17.4021424 C114.787633,17.0254273 114.777169,16.6487123 114.787633,16.2719972 C114.798097,15.9162108 114.839955,15.8743536 115.21667,15.8534249 C115.373634,15.8429606 115.520135,15.8534249 115.677099,15.8534249 C117.738568,15.8534249 119.789572,15.8638892 121.85104,15.8638892 C122.709113,15.8638892 122.824221,15.7069246 122.45797,14.9430302 C121.432468,12.8606332 119.73725,11.7409523 117.435103,11.6886308 C115.091098,11.6363093 113.364487,12.7769187 112.401771,14.8802444 C111.59602,16.6277837 111.805306,18.4067158 112.935451,19.9972905 C114.944598,22.8435819 118.900106,22.8645106 120.982503,20.8658279 C121.275503,20.593756 121.568504,20.4995772 121.945219,20.5100415 C122.60447,20.5100415 123.274186,20.4995772 124.017152,20.4995772 Z" fill="#FFFFFF" fill-rule="nonzero"></path>
    </g>
</svg>