<?xml version="1.0" encoding="UTF-8"?>
<svg width="90px" height="90px" viewBox="0 0 90 90" version="1.1" xmlns="http://www.w3.org/2000/svg" xmlns:xlink="http://www.w3.org/1999/xlink">
    <!-- Generator: Sketch 49.1 (51147) - http://www.bohemiancoding.com/sketch -->
    <title>Icons/Due</title>
    <desc>Created with Sketch.</desc>
    <defs></defs>
    <g id="Icons/Due" stroke="none" stroke-width="1" fill="none" fill-rule="evenodd">
        <path d="M63.3749109,23.8749884 C63.3749109,28.1406032 62.5624128,32.1353848 60.9374167,35.8593348 C59.1770047,39.9218251 56.7056554,42.9686929 53.5233719,44.999938 C56.7056554,47.0311832 59.1770047,50.0780509 60.9374167,54.1405412 C62.5624128,57.8644912 63.3749109,61.8592728 63.3749109,66.1248876 L63.7811599,66.1248876 C64.1197003,66.1248876 64.407461,66.2433775 64.6444391,66.4803555 C64.8814172,66.7173336 64.999907,67.0050944 64.999907,67.3436347 L64.999907,69.7811289 C64.999907,70.1196693 64.8814172,70.40743 64.6444391,70.6444081 C64.407461,70.8813862 64.1197003,70.999876 63.7811599,70.999876 L27.2187471,70.999876 C26.8802068,70.999876 26.592446,70.8813862 26.3554679,70.6444081 C26.1184898,70.40743 26,70.1196693 26,69.7811289 L26,67.3436347 C26,67.0050944 26.1184898,66.7173336 26.3554679,66.4803555 C26.592446,66.2433775 26.8802068,66.1248876 27.2187471,66.1248876 L27.6249961,66.1248876 C27.6249961,61.8592728 28.4374942,57.8644912 30.0624903,54.1405412 C31.8229023,50.0780509 34.2942516,47.0311832 37.4765351,44.999938 C34.2942516,42.9686929 31.8229023,39.9218251 30.0624903,35.8593348 C28.4374942,32.1353848 27.6249961,28.1406032 27.6249961,23.8749884 L27.2187471,23.8749884 C26.8802068,23.8749884 26.592446,23.7564986 26.3554679,23.5195205 C26.1184898,23.2825424 26,22.9947816 26,22.6562413 L26,20.2187471 C26,19.8802068 26.1184898,19.592446 26.3554679,19.3554679 C26.592446,19.1184898 26.8802068,19 27.2187471,19 L63.7811599,19 C64.1197003,19 64.407461,19.1184898 64.6444391,19.3554679 C64.8814172,19.592446 64.999907,19.8802068 64.999907,20.2187471 L64.999907,22.6562413 C64.999907,22.9947816 64.8814172,23.2825424 64.6444391,23.5195205 C64.407461,23.7564986 64.1197003,23.8749884 63.7811599,23.8749884 L63.3749109,23.8749884 Z M32.4999845,23.8749884 C32.4999845,27.2603965 33.0755045,30.3749729 34.2265429,33.2187161 C35.3775813,36.0624593 36.9517963,38.3306826 38.9491879,40.0233874 C40.9465795,41.7160922 43.130168,42.5624438 45.4999535,42.5624438 C47.869739,42.5624438 50.0533276,41.7160922 52.0507191,40.0233874 C54.0481107,38.3306826 55.6223257,36.0624593 56.7733641,33.2187161 C57.9244025,30.3749729 58.4999225,27.2603965 58.4999225,23.8749884 L32.4999845,23.8749884 Z M58.4999225,66.1248876 C58.4999225,62.7394796 57.9244025,59.6249031 56.7733641,56.7811599 C55.6223257,53.9374167 54.0481107,51.6691935 52.0507191,49.9764886 C50.0533276,48.2837838 47.869739,47.4374322 45.4999535,47.4374322 C43.130168,47.4374322 40.9465795,48.2837838 38.9491879,49.9764886 C36.9517963,51.6691935 35.3775813,53.9374167 34.2265429,56.7811599 C33.0755045,59.6249031 32.4999845,62.7394796 32.4999845,66.1248876 L58.4999225,66.1248876 Z" id="" stroke="#2CC38A" fill="#2CC38A"></path>
        <path d="M52,50.6585886 L52,52 L39,52 L39,50.6585886 C41.3303847,49.8349158 43,47.6124377 43,45 C43,42.3875623 41.3303847,40.1650842 39,39.3414114 L39,38 L52,38 L52,39.3414114 C49.6696153,40.1650842 48,42.3875623 48,45 C48,47.6124377 49.6696153,49.8349158 52,50.6585886 Z" id="Combined-Shape" fill="#FFFFFF"></path>
        <circle id="Oval" stroke="#2CC38A" stroke-width="6" cx="45" cy="45" r="42"></circle>
    </g>
</svg>