<?xml version="1.0" encoding="UTF-8"?>
<svg width="90px" height="90px" viewBox="0 0 90 90" version="1.1" xmlns="http://www.w3.org/2000/svg" xmlns:xlink="http://www.w3.org/1999/xlink">
    <!-- Generator: Sketch 49.1 (51147) - http://www.bohemiancoding.com/sketch -->
    <title>Icons/Outstanding</title>
    <desc>Created with Sketch.</desc>
    <defs></defs>
    <g id="Icons/Outstanding" stroke="none" stroke-width="1" fill="none" fill-rule="evenodd">
        <path d="M22,44.593689 C22,45.1544484 22.1594916,45.541785 22.543192,45.9254854 L44.0743906,67.4566841 C44.458091,67.8403845 44.8454276,67.999876 45.406187,67.999876 C45.9669465,67.999876 46.3542831,67.8403845 46.7379835,67.4566841 L67.4566841,46.7379835 C67.8403845,46.3542831 67.999876,45.9669465 67.999876,45.406187 C67.999876,44.8454276 67.8403845,44.458091 67.4566841,44.0743906 L45.9254854,22.543192 C45.541785,22.1594916 45.1544484,22 44.593689,22 L23.8749884,22 C23.314229,22 22.9268924,22.1594916 22.543192,22.543192 C22.1594916,22.9268924 22,23.314229 22,23.8749884 L22,44.593689 Z M35.3749729,40.9687316 C33.8610812,40.9687316 32.4849621,40.4020943 31.4164068,39.333539 C30.3478515,38.2649837 29.7812142,36.8888645 29.7812142,35.3749729 C29.7812142,33.8610812 30.3478515,32.4849621 31.4164068,31.4164068 C32.4849621,30.3478515 33.8610812,29.7812142 35.3749729,29.7812142 C36.8888645,29.7812142 38.2649837,30.3478515 39.333539,31.4164068 C40.4020943,32.4849621 40.9687316,33.8610812 40.9687316,35.3749729 C40.9687316,36.8888645 40.4020943,38.2649837 39.333539,39.333539 C38.2649837,40.4020943 36.8888645,40.9687316 35.3749729,40.9687316 Z" id="" stroke="#2CC38A" stroke-width="6"></path>
        <circle id="Oval" stroke="#2CC38A" stroke-width="6" cx="45" cy="45" r="42"></circle>
    </g>
</svg>