<?xml version="1.0" encoding="UTF-8"?>
<svg width="14px" height="9px" viewBox="0 0 14 9" version="1.1" xmlns="http://www.w3.org/2000/svg" xmlns:xlink="http://www.w3.org/1999/xlink">
    <!-- Generator: Sketch 49.3 (51167) - http://www.bohemiancoding.com/sketch -->
    <title>Chevron</title>
    <desc>Created with Sketch.</desc>
    <defs></defs>
    <g id="Symbols" stroke="none" stroke-width="1" fill="none" fill-rule="evenodd">
        <g id="Mobile/Loan-Summary" transform="translate(-252.000000, -84.000000)" fill="#BDBDBD">
            <g id="Overview">
                <path d="M259.343732,84.2499994 L265.406218,90.3124849 C265.552051,90.4583181 265.624968,90.6354007 265.624968,90.8437337 C265.624968,91.0520667 265.552051,91.2291493 265.406218,91.3749824 L264.71872,92.0624808 C264.572887,92.2083139 264.395804,92.2864387 264.187471,92.2968552 C263.979138,92.3072717 263.802055,92.2395638 263.656222,92.0937307 L258.812484,87.2499923 L253.968745,92.0937307 C253.822912,92.2395638 253.64583,92.3072717 253.437497,92.2968552 C253.229164,92.2864387 253.052081,92.2083139 252.906248,92.0624808 L252.218749,91.3749824 C252.072916,91.2291493 252,91.0520667 252,90.8437337 C252,90.6354007 252.072916,90.4583181 252.218749,90.3124849 L258.281235,84.2499994 C258.427068,84.0833333 258.604151,84 258.812484,84 C259.020817,84 259.197899,84.0833333 259.343732,84.2499994 Z" id="Chevron" transform="translate(258.812484, 88.148948) rotate(-180.000000) translate(-258.812484, -88.148948) "></path>
            </g>
        </g>
    </g>
</svg>