<?xml version="1.0" encoding="UTF-8"?>
<svg width="15px" height="10px" viewBox="0 0 15 10" version="1.1" xmlns="http://www.w3.org/2000/svg" xmlns:xlink="http://www.w3.org/1999/xlink">
    <!-- Generator: Sketch 49.3 (51167) - http://www.bohemiancoding.com/sketch -->
    <title>Chevron</title>
    <desc>Created with Sketch.</desc>
    <defs></defs>
    <g id="Symbols" stroke="none" stroke-width="1" fill="none" fill-rule="evenodd">
        <g id="Mobile/Loan-Summary" transform="translate(-251.000000, -83.000000)" fill="#BDBDBD">
            <g id="Overview">
                <path d="M258.906232,84.0937736 L264.968718,90.1562592 C265.114551,90.3020923 265.187467,90.4791749 265.187467,90.6875079 C265.187467,90.8958409 265.114551,91.0729235 264.968718,91.2187566 L264.281219,91.906255 C264.135386,92.0520881 263.958303,92.130213 263.74997,92.1406294 C263.541638,92.1510459 263.364555,92.0833381 263.218722,91.9375049 L258.374983,87.0937665 L253.531245,91.9375049 C253.385412,92.0833381 253.208329,92.1510459 252.999996,92.1406294 C252.791663,92.130213 252.614581,92.0520881 252.468747,91.906255 L251.781249,91.2187566 C251.635416,91.0729235 251.5625,90.8958409 251.5625,90.6875079 C251.5625,90.4791749 251.635416,90.3020923 251.781249,90.1562592 L257.843735,84.0937736 C257.989568,83.9271075 258.16665,83.8437742 258.374983,83.8437742 C258.583316,83.8437742 258.760399,83.9271075 258.906232,84.0937736 Z" id="Chevron"></path>
            </g>
        </g>
    </g>
</svg>