<?xml version="1.0" encoding="UTF-8"?>
<svg width="80px" height="80px" viewBox="0 0 80 80" version="1.1" xmlns="http://www.w3.org/2000/svg" xmlns:xlink="http://www.w3.org/1999/xlink">
    <!-- Generator: Sketch 51.2 (57519) - http://www.bohemiancoding.com/sketch -->
    <title>Mobile/Loan Summary/Icon/Feedback</title>
    <desc>Created with Sketch.</desc>
    <defs></defs>
    <g id="Mobile/Loan-Summary/Icon/Feedback" stroke="none" stroke-width="1" fill="none" fill-rule="evenodd">
        <circle id="Oval" stroke="#2CC38A" stroke-width="5" cx="40" cy="40" r="37.5"></circle>
        <path d="M62.8840212,55.1071429 C62.6182373,55.9642861 62.1398257,56.6607139 61.4487864,57.1964286 C60.757747,57.7321433 59.9869736,58 59.1364637,58 C56.5317779,58 53.8207789,57.1964286 51.0034666,55.5892857 C48.9303497,56.0714286 46.7907872,56.2321429 44.5847778,56.0714286 C42.3787683,55.9107143 40.3189411,55.4017861 38.4052947,54.5446429 C41.7541758,54.2767861 44.8372732,53.5 47.6545855,52.2142857 C49.036663,52.1071433 50.3390065,51.8660718 51.5616135,51.4910714 C54.3257697,53.2589286 56.850719,54.1428571 59.1364637,54.1428571 C56.9570335,52.9642853 55.7344253,51.383929 55.4686415,49.4017857 C56.5317779,48.5982143 57.3822878,47.6875004 58.02017,46.6696429 C58.7643654,45.4375004 59.1364637,44.1785714 59.1364637,42.8928571 C59.1364637,42.0357139 58.9504151,41.1785718 58.5783168,40.3214286 C59.1630417,38.3392853 59.2959342,36.3571433 58.9769931,34.375 C60.2527574,35.6071424 61.2361586,36.9598218 61.927198,38.4330357 C62.6182373,39.9062496 62.9637564,41.3928567 62.9637564,42.8928571 C62.9637564,45.5714282 62.0335112,48.008929 60.1730221,50.2053571 C60.3856499,50.4196433 60.6514337,50.6071429 60.9703748,50.7678571 C61.7145702,51.1964282 62.272717,51.8125 62.6448154,52.6160714 C63.0169137,53.4196429 63.0966489,54.2499996 62.8840212,55.1071429 Z M36.1727073,25.8571429 C33.0896099,25.8571429 30.3254549,26.4196429 27.8802397,27.5446429 C25.6476522,28.5625004 23.8934764,29.9017853 22.6177122,31.5625 C21.4482612,33.1696429 20.8635363,34.7767857 20.8635363,36.3839286 C20.8635363,37.8303571 21.2887907,39.2232139 22.1393006,40.5625 C22.9366532,41.7410718 23.9732117,42.7857147 25.2489759,43.6964286 C24.9300349,45.8928567 23.4682221,47.6607139 20.8635363,49 C23.6276926,49 26.6576327,47.9821424 29.9533566,45.9464286 C31.9201602,46.5892857 33.9932771,46.9107143 36.1727073,46.9107143 C39.2558046,46.9107143 42.0199596,46.3482143 44.4651749,45.2232143 C46.6977623,44.2053567 48.4519381,42.8660718 49.7277024,41.2053571 C50.8971533,39.5982143 51.4818782,37.9910714 51.4818782,36.3839286 C51.4818782,34.7767857 50.8971533,33.1696429 49.7277024,31.5625 C48.4519381,29.9017853 46.6977623,28.5625004 44.4651749,27.5446429 C42.0199596,26.4196429 39.2558046,25.8571429 36.1727073,25.8571429 Z M36.1727073,22 C40,22 43.4286164,22.7499996 46.4585565,24.25 C49.2227128,25.5892861 51.3888533,27.3571433 52.9569806,29.5535714 C54.5251079,31.7499996 55.3091709,34.0267861 55.3091709,36.3839286 C55.3091709,38.2589282 54.8174697,40.0669639 53.8340685,41.8080357 C52.8506673,43.5491076 51.5084562,45.0892853 49.8074376,46.4285714 C48.106419,47.7678576 46.1396154,48.8125004 43.907028,49.5625 C41.51497,50.3660714 38.9368635,50.7678571 36.1727073,50.7678571 C34.2059036,50.7678571 32.3188365,50.553571 30.5115034,50.125 C27.109465,51.946429 23.8934764,52.8571429 20.8635363,52.8571429 C19.9598704,52.8571429 19.1625177,52.5758929 18.4714784,52.0133929 C17.780439,51.4508929 17.3286066,50.7410718 17.1159788,49.8839286 C16.9033511,49.0267853 16.9830863,48.1964286 17.3551846,47.3928571 C17.727283,46.5892857 18.3120078,45.9732139 19.1093605,45.5446429 C19.6940854,45.2767861 20.1724969,44.9821429 20.5445953,44.6607143 C19.9598704,44.0178571 19.4283015,43.3482147 18.94989,42.6517857 C17.6741257,40.6696424 17.0362436,38.5401782 17.0362436,36.2633929 C17.0362436,33.9866076 17.8203066,31.7499996 19.3884339,29.5535714 C20.9565612,27.3571433 23.1227018,25.5892861 25.886858,24.25 C28.9167981,22.7499996 32.3454145,22 36.1727073,22 Z" id="" stroke="#2CC38A" stroke-width="0.5" fill="#2CC38A"></path>
    </g>
</svg>