<?xml version="1.0" encoding="UTF-8"?>
<svg width="32px" height="32px" viewBox="0 0 32 32" version="1.1" xmlns="http://www.w3.org/2000/svg" xmlns:xlink="http://www.w3.org/1999/xlink">
    <!-- Generator: Sketch 49.2 (51160) - http://www.bohemiancoding.com/sketch -->
    <title>Taralite Logo</title>
    <desc>Created with Sketch.</desc>
    <defs></defs>
    <g id="Symbols" stroke="none" stroke-width="1" fill="none" fill-rule="evenodd">
        <g id="Mobile/Nav/Taralite-Logo/Alt" fill="#FFFFFF" fill-rule="nonzero">
            <path d="M12.5025921,31.9970053 C11.8180899,31.8411938 11.1225473,31.6408647 10.4490855,31.3737593 C6.13230551,29.7266091 3.07412635,26.7439317 1.20830585,22.5036329 C0.899175823,21.8024812 0.910216181,21.7913518 1.59471838,21.4240818 C2.95268241,20.7006712 4.31064644,19.9772607 5.66861048,19.2538501 C6.17646694,18.9867447 6.17646694,18.9867447 6.44143554,19.4986968 C8.48390177,23.4162432 10.5374084,27.3337895 12.5798746,31.2513359 C12.6461167,31.3848887 12.7233992,31.507312 12.778601,31.6408647 C12.8890046,31.9190995 12.8117221,32.0192641 12.5025921,31.9970053 Z M19.7229862,31.8968407 C19.5573808,31.9190995 19.469058,31.7298998 19.3696947,31.5518295 C19.0605647,30.9508423 18.7403943,30.3609845 18.4312643,29.7599973 C16.4108788,25.8869684 14.3904933,22.0139396 12.3701078,18.1409108 C12.1051392,17.6400881 11.8401706,17.1503948 11.5862424,16.6384427 C11.3875159,16.248914 11.3985563,16.2155258 11.7849688,16.0040673 C13.0766907,15.314045 14.3794529,14.635152 15.6711748,13.9451296 C15.9361434,13.8004475 16.0575873,13.8672239 16.1790313,14.1120705 C16.6096052,14.9690338 17.0843406,15.8148677 17.5921971,16.6384427 C18.29878,17.7847702 19.0164033,18.9199683 19.9989952,19.8659668 C21.2355152,21.0456824 22.7038829,21.713446 24.3930576,21.9249045 C26.4355239,22.1808805 28.3344654,21.657799 30.1892456,20.8898709 C30.4542142,20.778577 30.7191828,20.6672831 30.9841514,20.5559891 C31.1055953,20.5114716 31.2270392,20.4446952 31.3374428,20.5671185 C31.4147253,20.6561537 31.3816042,20.7674476 31.3484832,20.8787415 C31.1607971,21.4129524 30.9951917,21.9471633 30.7633442,22.4702447 C28.6767165,27.2558838 25.1327616,30.3721139 20.1535602,31.818935 C20.0652373,31.8411938 19.9769144,31.874582 19.8885916,31.8968407 C19.8885916,31.8857113 19.8444301,31.8857113 19.7229862,31.8968407 Z M16.7089685,0 C20.363327,0.155811504 23.664394,1.44682111 26.501766,3.92867578 C28.8202412,5.95422533 30.4210931,8.44720939 31.3374428,11.3853692 C31.4920078,11.8861919 31.6244921,12.398144 31.7348957,12.9212254 C31.8342589,13.3886599 31.7790571,13.4888245 31.3595235,13.7114123 C30.3990124,14.2233644 29.4495416,14.7575753 28.4779901,15.2250098 C27.1200261,15.8705146 25.728941,15.9261616 24.3488962,15.2472686 C23.7085554,14.9356456 23.23382,14.4348229 22.8474075,13.8560945 C22.2181071,12.9212254 21.6771296,11.9307094 21.1582327,10.9290641 C19.3807351,7.52346976 17.6142778,4.11787546 15.8478205,0.701151768 C15.4724484,0 15.4724484,0 16.2342331,0 C16.3667174,0 16.4881613,0 16.7089685,0 Z M0.00490682578,14.7353165 C0.280915776,11.7860273 1.24142692,9.09271419 2.96372277,6.68876528 C4.50937289,4.5407924 6.45247589,2.86025404 8.8151125,1.66940897 C8.9475968,1.60263261 9.0800811,1.54698565 9.21256539,1.48020929 C9.43337255,1.36891536 9.58793756,1.44682111 9.69834114,1.65827958 C9.88602723,2.02554955 10.0847537,2.39281952 10.2834801,2.77121889 C11.1335877,4.39611029 11.9836952,6.03213108 12.8338028,7.65702248 C12.900045,7.7905752 12.9662871,7.91299852 13.0325293,8.04655124 C13.2643768,8.51398575 13.2533364,8.53624454 12.778601,8.79222058 C12.7675607,8.80334997 12.74548,8.80334997 12.7344396,8.81447937 C9.06904074,10.7509938 5.41468224,12.6986376 1.74928339,14.635152 C1.31870943,14.8688692 0.899175823,15.1137159 0.457561504,15.3251744 C0.0932296897,15.5032446 0.0159471838,15.4475977 0.00490682578,15.0358101 C-0.00613353222,14.9579044 0.00490682578,14.8466104 0.00490682578,14.7353165 Z" id="Taralite-Logo"></path>
        </g>
    </g>
</svg>